<svg xmlns:xlink="http://www.w3.org/1999/xlink" xmlns="http://www.w3.org/2000/svg" data-encore-id="icon" role="img" aria-hidden="true" class="e-10451-icon" viewBox="0 0 16 16" style="--encore-icon-height: var(--encore-graphic-size-decorative-smaller); --encore-icon-width: var(--encore-graphic-size-decorative-smaller);" width="16"  height="16" ><path d="M0 4.75A3.75 3.75 0 0 1 3.75 1h.75v1.5h-.75A2.25 2.25 0 0 0 1.5 4.75v5A2.25 2.25 0 0 0 3.75 12H5v1.5H3.75A3.75 3.75 0 0 1 0 9.75zM12.25 2.5a2.25 2.25 0 0 1 2.25 2.25v5A2.25 2.25 0 0 1 12.25 12H9.81l1.018-1.018a.75.75 0 0 0-1.06-1.06L6.939 12.75l2.829 2.828a.75.75 0 1 0 1.06-1.06L9.811 13.5h2.439A3.75 3.75 0 0 0 16 9.75v-5A3.75 3.75 0 0 0 12.25 1h-.75v1.5z" fill="#1ED760"></path><path d="m8 1.85.77.694H6.095V1.488q1.046-.077 1.507-.385.474-.308.583-.913h1.32V8H8z" fill="#1ED760"></path><path d="M8.77 2.544 8 1.85v.693z" fill="#1ED760"></path></svg>